<?xml version="1.0" encoding="utf-8"?>
<!-- Generator: Adobe Illustrator 26.0.3, SVG Export Plug-In . SVG Version: 6.00 Build 0)  -->
<svg version="1.1" id="Layer_1" xmlns="http://www.w3.org/2000/svg" xmlns:xlink="http://www.w3.org/1999/xlink" x="0px" y="0px"
	 viewBox="0 0 535.4 535.4" style="enable-background:new 0 0 535.4 535.4;" xml:space="preserve">
<style type="text/css">
	.st0{fill:#006838;}
	.st1{fill:#C82034;}
	.st2{fill:#C82034;stroke:#C82034;stroke-width:6;stroke-miterlimit:10;}
</style>
<path class="st0" d="M257.7,530.5c0,0-1.4-67.5-30.9-92.4c-47.4-39.9-101.8-35.4-133.5-51.1c-28-13.8-43.5-29.9-54-47.2
	c-17.2-28.4-26.5-67.3-26.5-67.3s-8.9,36.3,2.3,74.6c10.9,37.3,42.3,75.1,57.7,85.5c72.3,48.6,86.6,29.6,125.3,47.3
	C237.4,498,257.7,530.5,257.7,530.5z"/>
<path class="st0" d="M257.7,450.5c0,0,0.5-89.8-29-114.7c-47.4-39.9-55.6-36.1-89-47.9c-43.6-15.3-73.2-33.2-83.9-50.3
	c-21.6-34.4-11.2-104.3-11.2-104.3S3,202.7,21.3,258.5c12.1,36.9,42.9,74.2,76.1,90.2c41.5,20,61.9,18.8,100.6,36.6
	C237.4,403.3,257.7,450.5,257.7,450.5z"/>
<path class="st0" d="M257.7,341.9c0,0,11.3-101.9-21-128.2c-21.3-17.4-47.9-27.9-80.4-41.6c-22.7-9.5-48-41.1-47.7-61.3
	c0.5-33.8,39.8-73.2,39.8-73.2S68.4,54.3,68.4,147.5c0,46.4,25.7,70.8,41.1,79.7c24,14,57,18.8,88.5,38
	C235,287.8,257.7,341.9,257.7,341.9z"/>
<path class="st0" d="M284.7,341.9c0,0-11.3-101.9,21-128.2c21.3-17.4,47.9-27.9,80.4-41.6c22.7-9.5,48-41.1,47.7-61.3
	c-0.5-33.8-39.8-73.2-39.8-73.2S474,54.3,474,147.5c0,46.4-25.7,70.8-41.1,79.7c-24,14-57,18.8-88.5,38
	C307.4,287.8,284.7,341.9,284.7,341.9z"/>
<path class="st0" d="M282.8,450.5c0,0-0.5-89.8,29-114.7c47.4-39.9,55.6-36.1,89-47.9c43.6-15.3,73.2-33.2,83.9-50.3
	c21.6-34.4,11.2-104.3,11.2-104.3s41.6,69.3,23.3,125.2c-12.1,36.9-42.9,74.2-76.1,90.2c-41.5,20-61.9,18.8-100.6,36.6
	C303.1,403.3,282.8,450.5,282.8,450.5z"/>
<path class="st0" d="M279.1,530.5c0,0,1.4-67.5,30.9-92.4c47.4-39.9,101.8-35.4,133.5-51.1c28-13.8,43.5-29.9,54-47.2
	c17.2-28.4,26.5-67.3,26.5-67.3s8.9,36.3-2.3,74.6c-10.9,37.3-42.3,75.1-57.7,85.5c-72.3,48.6-86.6,29.6-125.3,47.3
	C299.5,498,279.1,530.5,279.1,530.5z"/>
<rect x="257.7" y="46.8" class="st1" width="28" height="180.4"/>
<rect x="255.5" y="51.5" transform="matrix(2.733642e-11 -1 1 2.733642e-11 163.1824 375.8914)" class="st1" width="28" height="109.8"/>
<g>
	<line class="st2" x1="169.2" y1="106.4" x2="198" y2="106.4"/>
	<line class="st2" x1="344.6" y1="106.4" x2="373.5" y2="106.4"/>
</g>
<g>
	<line class="st2" x1="187.3" y1="66.5" x2="204.9" y2="74.5"/>
	<line class="st2" x1="338.3" y1="135.4" x2="362.1" y2="146.2"/>
</g>
<g>
	<line class="st2" x1="185.4" y1="141.8" x2="203.4" y2="134.6"/>
	<line class="st2" x1="339.7" y1="80.6" x2="364" y2="70.9"/>
</g>
<g>
	<line class="st2" x1="235.6" y1="194.2" x2="243.5" y2="176.4"/>
	<line class="st2" x1="303.1" y1="42.5" x2="313.8" y2="18.6"/>
</g>
<g>
	<line class="st2" x1="312.6" y1="194.7" x2="304.9" y2="176.8"/>
	<line class="st2" x1="247.1" y1="42.1" x2="236.8" y2="18"/>
</g>
<g>
	<line class="st2" x1="271.3" y1="208.5" x2="271.3" y2="179.7"/>
	<line class="st2" x1="271.3" y1="33" x2="271.3" y2="4.2"/>
</g>
<g>
	<line class="st2" x1="343.5" y1="178.6" x2="323.2" y2="158.2"/>
	<line class="st2" x1="219.5" y1="54.5" x2="199.1" y2="34.1"/>
</g>
<g>
	<line class="st2" x1="343.5" y1="34.1" x2="323.2" y2="54.5"/>
	<line class="st2" x1="219.5" y1="158.2" x2="199.1" y2="178.6"/>
</g>
</svg>
