<?xml version="1.0" encoding="utf-8"?>
<!-- Generator: Adobe Illustrator 26.0.3, SVG Export Plug-In . SVG Version: 6.00 Build 0)  -->
<svg version="1.1" id="Layer_1" xmlns="http://www.w3.org/2000/svg" xmlns:xlink="http://www.w3.org/1999/xlink" x="0px" y="0px"
	 viewBox="0 0 535.4 535.4" style="enable-background:new 0 0 535.4 535.4;" xml:space="preserve">
<style type="text/css">
	.st0{fill:#FFFFFF;}
	.st1{fill:#006838;}
	.st2{fill:#C82034;}
	.st3{fill:#C82034;stroke:#C82034;stroke-width:6;stroke-miterlimit:10;}
</style>
<circle class="st0" cx="267.7" cy="267.7" r="267.7"/>
<path class="st1" d="M258.9,500.5c0,0-1.3-59.8-27.4-81.9c-42-35.4-90.2-31.4-118.3-45.2c-24.8-12.2-38.6-26.5-47.8-41.8
	C50.1,306.4,41.9,272,41.9,272s-7.9,32.2,2,66.1c9.6,33,37.5,66.6,51.1,75.7c64,43.1,76.8,26.2,111,41.9
	C240.9,471.7,258.9,500.5,258.9,500.5z"/>
<path class="st1" d="M258.9,429.7c0,0,0.4-79.6-25.7-101.6c-42-35.4-49.3-32-78.8-42.4C115.8,272,89.6,256.2,80,241.1
	c-19.1-30.5-9.9-92.4-9.9-92.4S33.3,210,49.5,259.5c10.7,32.7,38,65.8,67.4,79.9c36.8,17.7,54.9,16.7,89.1,32.4
	C240.9,387.8,258.9,429.7,258.9,429.7z"/>
<path class="st1" d="M258.9,333.4c0,0,10-90.3-18.6-113.6c-18.9-15.4-42.4-24.7-71.3-36.9c-20.1-8.5-42.5-36.4-42.2-54.3
	c0.4-30,35.2-64.8,35.2-64.8s-70.8,14.7-70.8,97.4c0,41.1,22.8,62.7,36.4,70.6c21.3,12.4,50.5,16.7,78.4,33.7
	C238.8,285.5,258.9,333.4,258.9,333.4z"/>
<path class="st1" d="M282.8,333.4c0,0-10-90.3,18.6-113.6c18.9-15.4,42.4-24.7,71.3-36.9c20.1-8.5,42.5-36.4,42.2-54.3
	c-0.4-30-35.2-64.8-35.2-64.8s70.8,14.7,70.8,97.4c0,41.1-22.8,62.7-36.4,70.6c-21.3,12.4-50.5,16.7-78.4,33.7
	C303,285.5,282.8,333.4,282.8,333.4z"/>
<path class="st1" d="M281.1,429.7c0,0-0.4-79.6,25.7-101.6c42-35.4,49.3-32,78.8-42.4c38.6-13.6,64.8-29.4,74.4-44.5
	c19.1-30.5,9.9-92.4,9.9-92.4s36.9,61.4,20.7,110.9c-10.7,32.7-38.1,65.8-67.4,79.9c-36.8,17.7-54.9,16.7-89.1,32.4
	C299.2,387.8,281.1,429.7,281.1,429.7z"/>
<path class="st1" d="M277.9,500.5c0,0,1.3-59.8,27.4-81.9c42-35.4,90.2-31.4,118.3-45.2c24.8-12.2,38.6-26.5,47.8-41.8
	C486.7,306.4,495,272,495,272s7.9,32.2-2,66.1c-9.6,33-37.5,66.6-51.1,75.7c-64,43.1-76.8,26.2-111,41.9
	C295.9,471.7,277.9,500.5,277.9,500.5z"/>
<rect x="258.9" y="72" class="st2" width="24.8" height="159.8"/>
<rect x="257" y="76.1" transform="matrix(2.733997e-11 -1 1 2.733997e-11 144.7018 394.1157)" class="st2" width="24.8" height="97.3"/>
<g>
	<line class="st3" x1="180.5" y1="124.7" x2="206" y2="124.7"/>
	<line class="st3" x1="335.9" y1="124.7" x2="361.5" y2="124.7"/>
</g>
<g>
	<line class="st3" x1="196.5" y1="89.4" x2="212.2" y2="96.5"/>
	<line class="st3" x1="330.4" y1="150.4" x2="351.5" y2="160.1"/>
</g>
<g>
	<line class="st3" x1="194.8" y1="156.1" x2="210.8" y2="149.8"/>
	<line class="st3" x1="331.6" y1="101.9" x2="353.1" y2="93.3"/>
</g>
<g>
	<line class="st3" x1="239.4" y1="202.5" x2="246.4" y2="186.8"/>
	<line class="st3" x1="299.2" y1="68.1" x2="308.6" y2="46.9"/>
</g>
<g>
	<line class="st3" x1="307.6" y1="203" x2="300.8" y2="187.2"/>
	<line class="st3" x1="249.6" y1="67.8" x2="240.4" y2="46.5"/>
</g>
<g>
	<line class="st3" x1="271" y1="215.2" x2="271" y2="189.7"/>
	<line class="st3" x1="271" y1="59.8" x2="271" y2="34.2"/>
</g>
<g>
	<line class="st3" x1="335" y1="188.7" x2="316.9" y2="170.6"/>
	<line class="st3" x1="225.1" y1="78.8" x2="207" y2="60.7"/>
</g>
<g>
	<line class="st3" x1="335" y1="60.7" x2="316.9" y2="78.8"/>
	<line class="st3" x1="225.1" y1="170.6" x2="207" y2="188.7"/>
</g>
</svg>
